<svg xmlns="http://www.w3.org/2000/svg" width="34.259" height="33.414" viewBox="0 0 34.259 33.414">
  <path id="GitHub_icon" data-name="GitHub icon" d="M17.13,0a17.131,17.131,0,0,0-5.414,33.384c.855.158,1.132-.373,1.132-.824V29.371C8.082,30.408,7.09,27.35,7.09,27.35a4.537,4.537,0,0,0-1.9-2.507c-1.555-1.063.118-1.041.118-1.041a3.6,3.6,0,0,1,2.625,1.766,3.646,3.646,0,0,0,4.985,1.423A3.634,3.634,0,0,1,14,24.7c-3.8-.435-7.8-1.9-7.8-8.466a6.63,6.63,0,0,1,1.764-4.6A6.161,6.161,0,0,1,8.131,7.1s1.439-.46,4.712,1.756a16.236,16.236,0,0,1,8.578,0C24.691,6.645,26.127,7.1,26.127,7.1a6.155,6.155,0,0,1,.168,4.534,6.612,6.612,0,0,1,1.763,4.6c0,6.579-4.007,8.028-7.821,8.452a4.094,4.094,0,0,1,1.175,3.172v4.7c0,.455.274.991,1.143.822A17.133,17.133,0,0,0,17.13,0Z"/>
</svg>
