<svg xmlns="http://www.w3.org/2000/svg" width="35" height="33.707" viewBox="0 0 35 33.707">
  <path id="LinkedIn_icon" data-name="LinkedIn icon" d="M31.322,28.8v-6.58c0-3.525-1.954-5.166-4.559-5.166a3.956,3.956,0,0,0-3.569,1.9V17.32H19.232c.052,1.077,0,11.476,0,11.476h3.961V22.387a2.512,2.512,0,0,1,.131-.93,2.16,2.16,0,0,1,2.031-1.395c1.434,0,2.007,1.052,2.007,2.594V28.8h3.96ZM15.059,15.754a2,2,0,1,0,.026-3.966,2,2,0,1,0-.051,3.966ZM21.5,37.707C11.835,37.707,4,30.161,4,20.854S11.835,4,21.5,4,39,11.545,39,20.854,31.165,37.707,21.5,37.707ZM17.04,28.8V17.32H13.08V28.8Z" transform="translate(-4 -4)" fill-rule="evenodd"/>
</svg>
